<svg width="40" height="40" viewBox="0 0 40 40" fill="none" xmlns="http://www.w3.org/2000/svg">
<path d="M20 11.6665V34.9998" stroke="#0FBA1E" stroke-width="3.33333" stroke-linecap="round" stroke-linejoin="round"/>
<path d="M4.99998 30C4.55795 30 4.13403 29.8244 3.82147 29.5118C3.50891 29.1993 3.33331 28.7754 3.33331 28.3333V6.66667C3.33331 6.22464 3.50891 5.80072 3.82147 5.48816C4.13403 5.17559 4.55795 5 4.99998 5H13.3333C15.1014 5 16.7971 5.70238 18.0474 6.95262C19.2976 8.20286 20 9.89856 20 11.6667C20 9.89856 20.7024 8.20286 21.9526 6.95262C23.2028 5.70238 24.8985 5 26.6666 5H35C35.442 5 35.8659 5.17559 36.1785 5.48816C36.4911 5.80072 36.6666 6.22464 36.6666 6.66667V28.3333C36.6666 28.7754 36.4911 29.1993 36.1785 29.5118C35.8659 29.8244 35.442 30 35 30H25C23.6739 30 22.4021 30.5268 21.4644 31.4645C20.5268 32.4021 20 33.6739 20 35C20 33.6739 19.4732 32.4021 18.5355 31.4645C17.5978 30.5268 16.3261 30 15 30H4.99998Z" stroke="#0FBA1E" stroke-width="3.33333" stroke-linecap="round" stroke-linejoin="round"/>
</svg>
