<svg width="16" height="16" viewBox="0 0 16 16" fill="none" xmlns="http://www.w3.org/2000/svg">
<g clip-path="url(#clip0_1_323)">
<path d="M7.34466 1.87581C7.37322 1.72287 7.45437 1.58475 7.57405 1.48535C7.69374 1.38595 7.84441 1.33154 7.99999 1.33154C8.15557 1.33154 8.30624 1.38595 8.42592 1.48535C8.54561 1.58475 8.62676 1.72287 8.65532 1.87581L9.35599 5.58114C9.40575 5.84457 9.53377 6.08688 9.72334 6.27645C9.91291 6.46602 10.1552 6.59404 10.4187 6.64381L14.124 7.34447C14.2769 7.37304 14.415 7.45419 14.5144 7.57387C14.6138 7.69355 14.6683 7.84423 14.6683 7.99981C14.6683 8.15538 14.6138 8.30606 14.5144 8.42574C14.415 8.54542 14.2769 8.62657 14.124 8.65514L10.4187 9.35581C10.1552 9.40557 9.91291 9.53359 9.72334 9.72316C9.53377 9.91273 9.40575 10.155 9.35599 10.4185L8.65532 14.1238C8.62676 14.2767 8.54561 14.4149 8.42592 14.5143C8.30624 14.6137 8.15557 14.6681 7.99999 14.6681C7.84441 14.6681 7.69374 14.6137 7.57405 14.5143C7.45437 14.4149 7.37322 14.2767 7.34466 14.1238L6.64399 10.4185C6.59423 10.155 6.46621 9.91273 6.27664 9.72316C6.08707 9.53359 5.84475 9.40557 5.58132 9.35581L1.87599 8.65514C1.72306 8.62657 1.58493 8.54542 1.48553 8.42574C1.38614 8.30606 1.33173 8.15538 1.33173 7.99981C1.33173 7.84423 1.38614 7.69355 1.48553 7.57387C1.58493 7.45419 1.72306 7.37304 1.87599 7.34447L5.58132 6.64381C5.84475 6.59404 6.08707 6.46602 6.27664 6.27645C6.46621 6.08688 6.59423 5.84457 6.64399 5.58114L7.34466 1.87581Z" stroke="white" stroke-width="1.33333" stroke-linecap="round" stroke-linejoin="round"/>
<path d="M13.3333 1.3335V4.00016" stroke="white" stroke-width="1.33333" stroke-linecap="round" stroke-linejoin="round"/>
<path d="M14.6667 2.6665H12" stroke="white" stroke-width="1.33333" stroke-linecap="round" stroke-linejoin="round"/>
<path d="M2.66665 14.6667C3.40303 14.6667 3.99998 14.0697 3.99998 13.3333C3.99998 12.597 3.40303 12 2.66665 12C1.93027 12 1.33331 12.597 1.33331 13.3333C1.33331 14.0697 1.93027 14.6667 2.66665 14.6667Z" stroke="white" stroke-width="1.33333" stroke-linecap="round" stroke-linejoin="round"/>
</g>
<defs>
<clipPath id="clip0_1_323">
<rect width="16" height="16" fill="white"/>
</clipPath>
</defs>
</svg>
