<svg width="40" height="40" viewBox="0 0 40 40" fill="none" xmlns="http://www.w3.org/2000/svg">
<path d="M15 15.0052C14.9991 14.7094 15.077 14.4187 15.2255 14.163C15.3741 13.9072 15.5881 13.6956 15.8454 13.5499C16.1028 13.4041 16.3944 13.3295 16.6901 13.3337C16.9859 13.3378 17.2752 13.4206 17.5283 13.5735L25.8567 18.5685C26.1046 18.7163 26.3099 18.9259 26.4525 19.1769C26.5951 19.4279 26.6701 19.7116 26.6701 20.0002C26.6701 20.2888 26.5951 20.5725 26.4525 20.8235C26.3099 21.0744 26.1046 21.2841 25.8567 21.4319L17.5283 26.4269C17.275 26.5799 16.9856 26.6626 16.6897 26.6667C16.3938 26.6708 16.1021 26.5961 15.8447 26.4501C15.5873 26.3042 15.3733 26.0923 15.2249 25.8363C15.0764 25.5803 14.9988 25.2894 15 24.9935V15.0052Z" stroke="#0FBA1E" stroke-width="3.33333" stroke-linecap="round" stroke-linejoin="round"/>
<path d="M20 36.6668C29.2047 36.6668 36.6667 29.2049 36.6667 20.0002C36.6667 10.7954 29.2047 3.3335 20 3.3335C10.7952 3.3335 3.33333 10.7954 3.33333 20.0002C3.33333 29.2049 10.7952 36.6668 20 36.6668Z" stroke="#0FBA1E" stroke-width="3.33333" stroke-linecap="round" stroke-linejoin="round"/>
</svg>
