<svg width="40" height="40" viewBox="0 0 40 40" fill="none" xmlns="http://www.w3.org/2000/svg">
<path d="M35.7 18.2036C35.9983 18.072 36.2515 17.8557 36.4282 17.5816C36.6048 17.3075 36.6972 16.9876 36.6938 16.6615C36.6905 16.3354 36.5915 16.0175 36.4092 15.7471C36.2269 15.4767 35.9693 15.2657 35.6683 15.1403L21.3833 8.6336C20.949 8.43552 20.4773 8.33301 20 8.33301C19.5227 8.33301 19.0509 8.43552 18.6166 8.6336L4.3333 15.1336C4.03658 15.2636 3.78416 15.4772 3.60691 15.7483C3.42966 16.0194 3.33527 16.3363 3.33527 16.6603C3.33527 16.9842 3.42966 17.3011 3.60691 17.5722C3.78416 17.8434 4.03658 18.057 4.3333 18.1869L18.6166 24.7003C19.0509 24.8984 19.5227 25.0009 20 25.0009C20.4773 25.0009 20.949 24.8984 21.3833 24.7003L35.7 18.2036Z" stroke="white" stroke-width="3.33333" stroke-linecap="round" stroke-linejoin="round"/>
<path d="M36.6667 16.6667V26.6667" stroke="white" stroke-width="3.33333" stroke-linecap="round" stroke-linejoin="round"/>
<path d="M10 20.8333V26.6666C10 27.9927 11.0536 29.2644 12.9289 30.2021C14.8043 31.1398 17.3478 31.6666 20 31.6666C22.6522 31.6666 25.1957 31.1398 27.0711 30.2021C28.9464 29.2644 30 27.9927 30 26.6666V20.8333" stroke="white" stroke-width="3.33333" stroke-linecap="round" stroke-linejoin="round"/>
</svg>
