<svg width="40" height="40" viewBox="0 0 40 40" fill="none" xmlns="http://www.w3.org/2000/svg">
<path d="M20 11.6665V34.9998" stroke="#066EB7" stroke-width="3.33333" stroke-linecap="round" stroke-linejoin="round"/>
<path d="M5.00004 30C4.55801 30 4.13409 29.8244 3.82153 29.5118C3.50897 29.1993 3.33337 28.7754 3.33337 28.3333V6.66667C3.33337 6.22464 3.50897 5.80072 3.82153 5.48816C4.13409 5.17559 4.55801 5 5.00004 5H13.3334C15.1015 5 16.7972 5.70238 18.0474 6.95262C19.2977 8.20286 20 9.89856 20 11.6667C20 9.89856 20.7024 8.20286 21.9527 6.95262C23.2029 5.70238 24.8986 5 26.6667 5H35C35.4421 5 35.866 5.17559 36.1786 5.48816C36.4911 5.80072 36.6667 6.22464 36.6667 6.66667V28.3333C36.6667 28.7754 36.4911 29.1993 36.1786 29.5118C35.866 29.8244 35.4421 30 35 30H25C23.674 30 22.4022 30.5268 21.4645 31.4645C20.5268 32.4021 20 33.6739 20 35C20 33.6739 19.4733 32.4021 18.5356 31.4645C17.5979 30.5268 16.3261 30 15 30H5.00004Z" stroke="#066EB7" stroke-width="3.33333" stroke-linecap="round" stroke-linejoin="round"/>
</svg>
