<svg width="40" height="40" viewBox="0 0 40 40" fill="none" xmlns="http://www.w3.org/2000/svg">
<path d="M25.795 21.4834L28.32 35.6934C28.3482 35.8607 28.3248 36.0327 28.2527 36.1863C28.1806 36.3399 28.0633 36.4679 27.9165 36.5531C27.7697 36.6382 27.6004 36.6766 27.4313 36.6629C27.2621 36.6493 27.1012 36.5843 26.9699 36.4767L21.0033 31.9984C20.7152 31.7832 20.3653 31.6669 20.0058 31.6669C19.6462 31.6669 19.2963 31.7832 19.0083 31.9984L13.0316 36.4751C12.9005 36.5825 12.7397 36.6473 12.5708 36.661C12.4018 36.6746 12.2327 36.6364 12.0861 36.5515C11.9394 36.4666 11.8221 36.3389 11.7498 36.1856C11.6776 36.0323 11.6538 35.8606 11.6816 35.6934L14.205 21.4834" stroke="white" stroke-width="3.33333" stroke-linecap="round" stroke-linejoin="round"/>
<path d="M20 23.3333C25.5228 23.3333 30 18.8561 30 13.3333C30 7.8104 25.5228 3.33325 20 3.33325C14.4772 3.33325 10 7.8104 10 13.3333C10 18.8561 14.4772 23.3333 20 23.3333Z" stroke="white" stroke-width="3.33333" stroke-linecap="round" stroke-linejoin="round"/>
</svg>
