<svg width="40" height="40" viewBox="0 0 40 40" fill="none" xmlns="http://www.w3.org/2000/svg">
<path d="M26.6667 35V31.6667C26.6667 29.8986 25.9643 28.2029 24.7141 26.9526C23.4638 25.7024 21.7682 25 20 25H10C8.23193 25 6.53624 25.7024 5.286 26.9526C4.03575 28.2029 3.33337 29.8986 3.33337 31.6667V35" stroke="white" stroke-width="3.33333" stroke-linecap="round" stroke-linejoin="round"/>
<path d="M26.6666 5.21313C28.0962 5.58375 29.3623 6.41857 30.2661 7.58657C31.1699 8.75457 31.6603 10.1896 31.6603 11.6665C31.6603 13.1433 31.1699 14.5784 30.2661 15.7464C29.3623 16.9144 28.0962 17.7492 26.6666 18.1198" stroke="white" stroke-width="3.33333" stroke-linecap="round" stroke-linejoin="round"/>
<path d="M36.6666 34.9999V31.6666C36.6655 30.1894 36.1739 28.7545 35.2689 27.5871C34.3639 26.4196 33.0968 25.5858 31.6666 25.2166" stroke="white" stroke-width="3.33333" stroke-linecap="round" stroke-linejoin="round"/>
<path d="M15 18.3333C18.6819 18.3333 21.6667 15.3486 21.6667 11.6667C21.6667 7.98477 18.6819 5 15 5C11.3181 5 8.33337 7.98477 8.33337 11.6667C8.33337 15.3486 11.3181 18.3333 15 18.3333Z" stroke="white" stroke-width="3.33333" stroke-linecap="round" stroke-linejoin="round"/>
</svg>
